<svg version="1.1" xmlns="http://www.w3.org/2000/svg" xmlns:xlink="http://www.w3.org/1999/xlink" width="155.82093" height="235.94825" viewBox="0,0,155.82093,235.94825"><g transform="translate(-163.71546,-94.56599)"><g data-paper-data="{&quot;isPaintingLayer&quot;:true}" fill-rule="nonzero" stroke="#000000" stroke-width="0" stroke-linecap="butt" stroke-linejoin="miter" stroke-miterlimit="10" stroke-dasharray="" stroke-dashoffset="0" style="mix-blend-mode: normal"><path d="M319.53639,107.91404v209.25217c0,7.37387 -6.07582,13.34804 -13.5748,13.34804h-128.67132c-7.49898,0 -13.5748,-5.97417 -13.5748,-13.34804v-209.25216c0,-7.37387 6.07583,-13.34804 13.5748,-13.34804h128.67132c7.49898,0 13.5748,5.97417 13.5748,13.34804z" fill="#ffffff"/><g><path d="M169.07188,258.57403h-0.66467v-0.12511h0.59429z" fill="#ffffff"/><path d="M304.99195,108.18772l4.19912,-7.31914c0.68031,0.45354 1.31369,0.97744 1.89234,1.5561v24.95231h3.77687v9.75884c-2.62737,-4.73867 -7.64756,-7.9447 -13.42624,-7.9447c-8.49989,0 -15.38113,6.92815 -15.38113,15.46714c0,8.53898 6.88905,15.46714 15.38113,15.46714c5.77087,0 10.79886,-3.20603 13.42624,-7.9447v4.08965l-5.3877,9.38349l5.3877,9.38351v5.44243l-1.9549,-1.13384c-4.10529,7.16275 -3.05746,15.87376 1.9549,21.84011v10.94743h-5.58319l-7.53027,13.12127l7.53027,13.12126h5.58319v5.83342l-16.94505,29.52677h16.94505v10.70501c-1.04001,2.08 -1.62649,4.42588 -1.62649,6.9125c0,2.48663 0.59429,4.83251 1.62649,6.91253v14.47404c0,0.80541 -0.0782,1.57956 -0.21895,2.33807l-4.25386,7.42079c-2.22859,1.9158 -5.12183,3.08092 -8.28094,3.08092h-3.04963c0.36751,-0.32061 0.7194,-0.64902 1.06346,-1.00092l-26.97757,-26.81337c-7.35823,7.49117 -7.28785,19.56462 0.16422,26.96976c0.29715,0.28933 0.60212,0.57084 0.90708,0.8367h-8.09328c-2.36151,-1.48573 -5.12964,-2.36151 -8.11673,-2.36151c-2.98709,0 -5.76304,0.87579 -8.11674,2.36151h-22.67681l-3.6361,-6.32605l-3.63611,6.32605h-18.18053l-2.10347,-3.65956h-15.06053l-2.10347,3.65956h-1.32152c-5.73175,0 -10.57989,-3.80032 -12.19073,-9.03944h24.49095v-26.4615h-25.05397v-5.27822l1.89233,0.01564l7.53027,-13.12127l-7.53027,-13.12127h-0.3988l-1.50135,-2.61174v-10.75193h29.25307l-18.12581,-31.57551l-11.12727,19.38476v-30.78572l4.37115,7.61629h15.06052l7.53027,-13.12127l-7.53027,-13.12127h-15.06052l-4.37115,7.61629v-17.64882c0.37535,0.01564 0.75068,0.05474 1.13385,0.05474v-38.14395c-0.38316,0 -0.7585,0.03129 -1.13385,0.05474v-16.98414h24.272v-19.84612h10.93177l-8.07763,14.08308h36.24379l-8.07763,-14.08308h10.79886c0,0.0391 0,0.07038 0,0.10165c0,10.53298 8.49208,19.07198 18.96249,19.07198v-19.17363h4.83251c-2.72122,8.39042 0.64902,17.82866 8.5468,22.41875c9.07072,5.26259 20.65935,2.14258 25.89848,-6.98288l-26.57879,-15.43587h18.31348l5.44243,9.48516h15.06052zM198.01219,233.4888c0,10.53298 8.49208,19.07197 18.9625,19.07197v-38.14395c-10.47043,0 -18.9625,8.539 -18.9625,19.07198zM213.5028,210.94493c8.49989,0 15.38114,-6.92816 15.38114,-15.46714c0,-8.53898 -6.88125,-15.46715 -15.38113,-15.46715c-8.49989,0 -15.38113,6.92034 -15.38113,15.46715c0,8.53898 6.88125,15.46714 15.38114,15.46714zM228.88392,243.42749l-18.12581,31.5755h36.24379l-18.1258,-31.5755zM245.46144,239.11891c-5.72394,8.82049 -3.25295,20.64371 5.51281,26.39892l20.72191,-31.94302c-8.77357,-5.76304 -20.5186,-3.27641 -26.24254,5.5441zM272.41553,227.6632c8.49989,0 15.38114,-6.92815 15.38114,-15.46715c0,-8.53898 -6.88125,-15.46714 -15.38114,-15.46714c-8.49989,0 -15.38112,6.92034 -15.38112,15.46714c0,8.53898 6.88124,15.46715 15.38112,15.46715zM252.26449,140.98307l7.53027,13.12127h15.06053l7.53027,-13.12127l-7.53027,-13.12126h-15.06053zM261.01459,162.34619l-18.1258,31.5755h36.24379l-18.12581,-31.5755zM231.07341,204.44684l-7.53027,13.12127l7.53027,13.12126h15.06052l7.53026,-13.12126l-7.53026,-13.12127zM239.95645,150.07725h-26.30509v26.4615h26.30509zM206.43389,131.08347c0,8.53898 6.88124,15.46714 15.38112,15.46714c8.49989,0 15.38114,-6.92816 15.38114,-15.46714c0,-8.53898 -6.88905,-15.46713 -15.38113,-15.46713c-8.49989,0 -15.38112,6.92815 -15.38112,15.46714zM172.95821,137.12802l7.53026,13.12126h15.06053l7.53026,-13.12126l-7.53026,-13.12127h-15.06053zM209.23329,169.89209l-32.84227,-19.07198c-5.2313,9.12546 -2.12692,20.78447 6.94379,26.05487c9.07072,5.26259 20.65935,2.14257 25.89848,-6.9829zM207.4817,262.82788c0,-8.53898 -6.88125,-15.46714 -15.38113,-15.46714c-8.49989,0 -15.38113,6.92816 -15.38113,15.46714c0,8.53899 6.88905,15.46715 15.38114,15.46715c8.49989,0 15.38114,-6.92815 15.38114,-15.46715zM230.18979,295.91256c0,-8.53899 -6.88125,-15.46713 -15.38113,-15.46713c-8.49989,0 -15.38112,6.92815 -15.38112,15.46713c0,8.53899 6.88905,15.46715 15.38112,15.46715c8.49989,0 15.38114,-6.92816 15.38114,-15.46715zM226.12361,315.008h36.24379l-18.1258,-31.5755l-18.1258,31.5755zM283.86343,273.74404c0,-8.53899 -6.88124,-15.46715 -15.38112,-15.46715c-8.49989,0 -15.38113,6.92815 -15.38113,15.46715c0,8.53899 6.88905,15.46714 15.38113,15.46714c8.49989,0 15.38112,-6.92816 15.38112,-15.46714zM286.87398,279.3585l-7.53027,13.12126l7.53027,13.12127h15.06052l7.53026,-13.12127l-7.53026,-13.12126zM300.92579,229.84487h-26.30509v26.46149h26.30509zM283.94946,183.07592c0,10.53298 8.49208,19.07198 18.9625,19.07198v-38.14395c-10.47043,0 -18.9625,8.539 -18.9625,19.07198z" fill="#ffffff"/><path d="M311.06776,127.36917v-24.94449c2.33022,2.32241 3.77687,5.54409 3.77687,9.10982v15.83467z" fill="#f6543b"/><path d="M309.45696,165.65386l5.3877,-9.3835v18.77482z" fill="#61e061"/><path d="M286.88961,279.36631h15.06052l7.52245,13.11346l-7.52245,13.12127h-15.06052l-7.53026,-13.12127z" fill="#61e061"/><path d="M310.37184,322.49915l4.25385,-7.42079c-0.53954,2.9558 -2.08,5.55191 -4.25385,7.42079z" fill="#61e061"/><path d="M199.64647,321.92051l2.09565,3.65956h-19.25965l2.10347,-3.65956z" fill="#61e061"/><path d="M309.26145,212.14133h5.58319v26.23472h-5.58319l-7.53027,-13.11346z" fill="#61e061"/><path d="M313.21816,291.35375c0,-2.48663 0.59429,-4.8325 1.62649,-6.91251v13.82503c-1.04001,-2.08 -1.62649,-4.42589 -1.62649,-6.91252z" fill="#fac900"/><path d="M301.41841,129.1755c5.77087,0 10.79886,3.20603 13.42624,7.9447v15.05271c-2.62737,4.73867 -7.64756,7.94471 -13.42624,7.94471c-8.49989,0 -15.38113,-6.92816 -15.38113,-15.46714c0,-8.53898 6.88905,-15.46714 15.38113,-15.46714z" fill="#fac900"/><path d="M283.96508,183.09155c0,-10.53298 8.49208,-19.07198 18.9625,-19.07198v38.14395c-10.47043,0 -18.9625,-8.53898 -18.9625,-19.07197z" fill="#c75eeb"/><path d="M312.88975,179.35379l1.9549,1.13385v20.70627c-5.01236,-5.97415 -6.06018,-14.68518 -1.9549,-21.84011z" fill="#c75eeb"/><path d="M250.95861,265.51783c-8.76575,-5.76304 -11.23675,-17.57842 -5.51281,-26.39892c5.72394,-8.82049 17.47679,-11.29931 26.24255,-5.5441l-20.72191,31.94301z" fill="#c75eeb"/><path d="M297.8996,273.74404l16.94504,-29.52676v29.52676z" fill="#4ebfe9"/><path d="M213.65917,176.53092v-26.4615h26.30509v26.4615z" fill="#f6543b"/><path d="M192.68705,118.54868h-24.27982v-7.01418c0,-7.08455 5.70829,-12.83194 12.75375,-12.83194h11.52607z" fill="#f6543b"/><path d="M274.63632,256.31417v-26.46149h26.30509v26.46149z" fill="#f6543b"/><path d="M180.50413,150.24147l-7.53026,-13.12127l7.53026,-13.12127h15.05271l7.53027,13.12127l-7.53027,13.12127z" fill="#61e061"/><path d="M231.08122,204.43903h15.06053l7.53026,13.12128l-7.53026,13.12126h-15.06053l-7.53027,-13.12126z" fill="#61e061"/><path d="M169.00149,258.44892h-0.59428v-2.48663l1.50135,2.61174h-0.83669z" fill="#ffffff"/><path d="M172.77837,209.84236l-4.37115,-7.61629v-11.00997l4.37115,-7.60845h15.06053l7.53026,13.11345l-7.53026,13.12127z" fill="#61e061"/><path d="M168.40721,271.92989v-13.35585h0.66467l3.50317,6.09928z" fill="#61e061"/><path d="M170.30737,284.80875l-1.90016,-0.01563v-0.10165h0.59429l7.53027,-13.12127l-3.9567,-6.89688l0.41444,-0.72722l-3.08092,-5.37206h0.3988l7.52245,13.12127z" fill="#61e061"/><path d="M172.98949,263.94609l-0.41444,0.72722l-3.50317,-6.09928h0.83669z" fill="#61e061"/><path d="M206.44952,131.08347c0,-8.54227 6.88637,-15.46713 15.38114,-15.46713c8.49477,0 15.38114,6.92488 15.38114,15.46714c0,8.54227 -6.88637,15.46714 -15.38113,15.46714c-8.49477,0 -15.38113,-6.92488 -15.38113,-15.46714z" fill="#fac900"/><path d="M257.02661,212.19606c0,-8.54227 6.88637,-15.46714 15.38112,-15.46714c8.49477,0 15.38113,6.92488 15.38113,15.46714c0,8.54227 -6.88636,15.46715 -15.38113,15.46715c-8.49477,0 -15.38112,-6.92488 -15.38112,-15.46715z" fill="#fac900"/><path d="M268.49012,289.21118c-8.49989,0 -15.38112,-6.92816 -15.38112,-15.46714c0,-8.53899 6.88123,-15.46715 15.38112,-15.46715c8.49989,0 15.38114,6.92034 15.38114,15.46715c0,8.53899 -6.88125,15.46714 -15.38114,15.46714z" fill="#fac900"/><path d="M176.73509,262.82007c0,-8.54227 6.88636,-15.46714 15.38113,-15.46714c8.49477,0 15.38113,6.92488 15.38113,15.46714c0,8.54227 -6.88637,15.46715 -15.38113,15.46715c-8.49477,0 -15.38113,-6.92488 -15.38113,-15.46715z" fill="#fac900"/><path d="M230.20543,295.90475c0,8.53899 -6.88125,15.46715 -15.38113,15.46715c-8.49989,0 -15.38113,-6.92816 -15.38113,-15.46715c0,-8.53899 6.88905,-15.46713 15.38114,-15.46713c8.49989,0 15.38114,6.92815 15.38114,15.46713z" fill="#fac900"/><path d="M257.98059,323.21855c2.98708,0 5.76304,0.8758 8.11674,2.36151h-16.23347c2.36151,-1.48573 5.12965,-2.36151 8.11673,-2.36151z" fill="#fac900"/><path d="M198.11384,195.47779c0,-8.54227 6.88637,-15.46715 15.38114,-15.46715c8.49477,0 15.38114,6.92488 15.38114,15.46715c0,8.54227 -6.88637,15.46714 -15.38113,15.46714c-8.49477,0 -15.38113,-6.92488 -15.38113,-15.46714z" fill="#fac900"/><path d="M169.54887,135.47027v38.14395c-0.38316,0 -0.75849,-0.03127 -1.13384,-0.05473v-38.02666c0.37535,-0.01564 0.75067,-0.05474 1.13384,-0.05474z" fill="#c75eeb"/><path d="M198.01219,233.4888c0,-10.53298 8.49208,-19.07198 18.9625,-19.07198v38.14395c-10.47043,0 -18.9625,-8.53899 -18.9625,-19.07197z" fill="#c75eeb"/><path d="M183.34262,176.87498c-9.07072,-5.2704 -12.18292,-16.92941 -6.9438,-26.05487l32.84227,19.07197c-5.2313,9.12546 -16.82776,12.25329 -25.89847,6.9829z" fill="#c75eeb"/><path d="M197.6603,245.20254h-29.25307v-12.19073l11.12728,-19.38475z" fill="#4ebfe9"/><path d="M246.99409,275.00299h-36.24379l18.12581,-31.5755z" fill="#4ebfe9"/><path d="M244.24941,283.4325l18.1258,31.5755h-36.24379z" fill="#4ebfe9"/><path d="M223.55096,319.24621l3.63611,6.33386h-7.2644z" fill="#4ebfe9"/><path d="M279.13258,193.92168h-36.24379l18.11799,-31.58332z" fill="#4ebfe9"/><path d="M195.53337,112.78565l8.08545,-14.08308h20.08852l8.07764,14.08308z" fill="#4ebfe9"/><path d="M193.46119,316.53282h-24.48312c-0.37535,-1.19639 -0.57083,-2.47099 -0.57083,-3.7925v-22.66899h25.05397z" fill="#f6543b"/><path d="M289.91581,108.18772l-5.44244,-9.48516h17.61753c2.61956,0 5.05927,0.7976 7.08455,2.16602l-4.19913,7.31914z" fill="#61e061"/><path d="M259.79474,154.09653l-7.53026,-13.12127l7.53026,-13.12127h15.06053l7.53026,13.12127l-7.53026,13.12127z" fill="#61e061"/><path d="M253.4687,117.8762c-10.47043,0 -18.9625,-8.53899 -18.9625,-19.07197c0,-0.0391 0,-0.10166 0,-0.10166h18.95469v19.17363z" fill="#c75eeb"/><path d="M169.00149,284.69146h-0.59428v-12.76157l4.16783,-7.25658l3.95671,6.89688z" fill="#61e061"/><path d="M273.11933,297.75799l26.97758,26.81337c-0.34406,0.35189 -0.70377,0.68031 -1.06347,1.00091h-24.84283c-0.30496,-0.26587 -0.60993,-0.54738 -0.90708,-0.8367c-7.45207,-7.39733 -7.52243,-19.47858 -0.1642,-26.96975z" fill="#c75eeb"/><path d="M258.29338,98.70256h7.8665l26.57879,15.43587c-5.2313,9.12546 -16.82776,12.25328 -25.89848,6.98288c-7.89778,-4.59009 -11.26803,-14.02835 -8.5468,-22.41875z" fill="#c75eeb"/></g><g><path d="M314.89938,267.16776l-0.29715,0.50828v-1.01655z" fill="none"/><path d="M310.65334,102.44816c-0.88362,-0.84451 -1.88452,-1.56391 -2.97927,-2.12692l0.8758,-1.53265z" fill="none"/><path d="M278.13167,107.29628v-8.39041h0.93835v7.44424h15.70173v-7.44424h0.93835v8.39041z" fill="#f6543b"/><path d="M284.30914,132.7725l5.03581,-8.76575h10.06381l5.03581,8.76575l-5.03581,8.76576h-10.06381zM285.39608,132.7725l4.48844,7.8274h8.98469l4.48844,-7.8274l-4.48844,-7.82741h-8.98469z" fill="#61e061"/><path d="M238.32216,153.34584h10.06381l5.03581,8.76575l-5.03581,8.76576h-10.06381l-5.03581,-8.76576zM238.86172,154.28419l-4.48844,7.8274l4.48844,7.82742h8.98469l4.48844,-7.82742l-4.48844,-7.8274z" fill="#61e061"/><path d="M266.59778,192.29521h-10.06381l-5.03582,-8.76575l5.03582,-8.76576h10.06381l5.03581,8.76576zM266.06606,191.35686l4.48844,-7.8274l-4.48844,-7.82741h-8.98471l-4.48844,7.82741l4.48844,7.8274z" fill="#61e061"/><path d="M183.67888,197.79238h-10.06381l-5.03582,-8.76575l5.03582,-8.76575h10.06381l5.03581,8.76575zM183.13933,196.85403l4.49627,-7.82741l-4.49627,-7.8274h-8.98472l-4.48844,7.8274l4.48844,7.82741z" fill="#61e061"/><path d="M170.94858,268.62219h-2.5961v-0.93834h2.05655l4.48844,-7.8274l-4.48844,-7.8274h-2.05655v-0.93835h2.5961l5.03582,8.76576z" fill="#61e061"/><path d="M252.47561,128.36226l-5.03582,-8.76575l5.03582,-8.76575h10.0638l5.03582,8.76575l-5.03582,8.76575zM248.52672,119.5965l4.48844,7.8274h8.98471l4.49626,-7.8274l-4.49626,-7.8274h-8.98471z" fill="#61e061"/><path d="M275.16807,161.40002c0,5.66138 -4.57446,10.2593 -10.19673,10.2593c-5.62228,0 -10.19674,-4.59792 -10.19674,-10.2593c0,-5.66138 4.57447,-10.2593 10.19674,-10.2593c5.62228,0 10.19673,4.59792 10.19673,10.2593zM274.22972,161.40002c0,-5.13747 -4.15219,-9.31313 -9.25839,-9.31313c-5.10618,0 -9.25839,4.17566 -9.25839,9.31313c0,5.13747 4.1522,9.31313 9.25839,9.31313c5.10618,0 9.25839,-4.17566 9.25839,-9.31313z" fill="#fac900"/><path d="M268.29464,118.7989c0,-5.66138 4.57446,-10.2593 10.19673,-10.2593c5.62228,0 10.19674,4.59792 10.19674,10.2593c0,5.66138 -4.57446,10.2593 -10.19674,10.2593c-5.62228,0 -10.19673,-4.59792 -10.19673,-10.2593zM269.23298,118.7989c0,5.13747 4.1522,9.31313 9.25839,9.31313c5.10618,0 9.25839,-4.17566 9.25839,-9.31313c0,-5.13747 -4.15219,-9.31313 -9.25839,-9.31313c-5.10618,0 -9.25839,4.17566 -9.25839,9.31313z" fill="#fac900"/><path d="M248.73003,105.45869c-4.72303,0 -8.83614,-2.65084 -10.94742,-6.55282h1.09474c1.94708,3.22949 5.40333,5.43461 9.38351,5.59882v-5.59882h0.93835v6.54499h-0.46917z" fill="#c75eeb"/><path d="M268.22424,142.84414c0,-6.91252 5.591,-12.5348 12.46441,-12.5348h0.46918v25.06959h-0.46918c-6.87343,0 -12.46441,-5.62228 -12.46441,-12.5348zM269.1626,142.84414c0,6.23221 4.91852,11.33058 11.05689,11.5808v-23.16162c-6.13837,0.25022 -11.05689,5.3486 -11.05689,11.58081z" fill="#c75eeb"/><path d="M259.20044,107.44486c-2.88543,-1.67339 -4.9498,-4.37115 -5.80996,-7.60846c-0.08602,-0.31278 -0.14857,-0.61774 -0.20332,-0.93053h0.95399c0.04693,0.23458 0.08602,0.46136 0.14857,0.68812c0.7976,2.98708 2.70557,5.48936 5.37206,7.03763c5.36424,3.12001 12.21419,1.38406 15.49841,-3.83942l-6.68574,-3.88634h1.87671l6.09928,3.54227l-0.23458,0.40662c-2.30678,4.01145 -6.5059,6.26349 -10.81449,6.26349c-2.11129,0 -4.25386,-0.53955 -6.20876,-1.67339z" fill="#c75eeb"/><path d="M219.86012,122.69306c3.26076,-0.68812 6.59192,-0.06255 9.37568,1.76722l0.39099,0.25805l-13.62171,20.99559l-0.39099,-0.25804c-2.7916,-1.82978 -4.69956,-4.64484 -5.38769,-7.92126c-0.68813,-3.27641 -0.06256,-6.62319 1.75941,-9.43042c1.82197,-2.80724 4.61356,-4.73085 7.87432,-5.41898zM215.74701,144.40024l12.58172,-19.4004c-1.79851,-1.08692 -3.82378,-1.64212 -5.88032,-1.64212c-0.7976,0 -1.5952,0.0782 -2.3928,0.25023c-3.01054,0.6412 -5.59882,2.41625 -7.28003,5.01235c-1.68121,2.5961 -2.25987,5.68484 -1.62648,8.71883c0.60211,2.86979 2.22077,5.36424 4.5901,7.05327z" fill="#c75eeb"/><path d="M257.01879,129.33971l12.27675,21.38658h-24.55351zM267.66905,149.78012l-10.65028,-18.55589l-10.65028,18.55589z" fill="#4ebfe9"/><path d="M314.61005,118.29064h-18.33693l10.54863,-18.38384c0.28933,0.11729 0.56301,0.26587 0.84451,0.40662l-9.77449,17.03106h16.71047v0.94617z" fill="#4ebfe9"/><path d="M314.2347,108.70382l-3.58918,-6.25566c1.74377,1.67339 3.00272,3.82377 3.58918,6.25566z" fill="#4ebfe9"/><path d="M230.36964,122.02839h17.57843v17.6801h-17.57843zM231.30799,138.76231h15.70174v-15.79557h-15.70174z" fill="#f6543b"/><path d="M203.02455,123.49066l-5.03581,-8.76576l5.03581,-8.76575h10.06381l5.03581,8.76575l-5.03581,8.76576zM199.07565,114.7249l4.48844,7.8274h8.98469l4.48844,-7.8274l-4.48844,-7.8274h-8.98469z" fill="#61e061"/><path d="M181.25481,101.54889l-5.03581,8.76575h-7.78048c0.03128,-0.32061 0.086,-0.63338 0.14074,-0.94617h7.09237l4.48844,-7.8274l-1.38406,-2.41625c0.32842,-0.06255 0.65685,-0.12511 0.99308,-0.15639l1.4779,2.57264z" fill="#61e061"/><path d="M219.23455,111.32337c0,-5.66138 4.57447,-10.2593 10.19674,-10.2593c5.62229,0 10.19674,4.59792 10.19674,10.2593c0,5.66138 -4.57446,10.2593 -10.19674,10.2593c-5.62229,0 -10.19674,-4.59792 -10.19674,-10.2593zM220.17289,111.32337c0,5.13747 4.1522,9.31314 9.25839,9.31314c5.10619,0 9.25839,-4.17567 9.25839,-9.31314c0,-5.13747 -4.1522,-9.31313 -9.25839,-9.31313c-5.10619,0 -9.25839,4.17566 -9.25839,9.31313z" fill="#fac900"/><path d="M237.15704,150.25711c0,5.66138 -4.57446,10.25931 -10.19674,10.25931c-5.62229,0 -10.19674,-4.59792 -10.19674,-10.25931c0,-5.66138 4.57446,-10.2593 10.19674,-10.2593c5.62229,0 10.19674,4.59792 10.19674,10.2593zM236.21869,150.25711c0,-5.13747 -4.1522,-9.31313 -9.25839,-9.31313c-5.10619,0 -9.2584,4.17566 -9.2584,9.31313c0,5.13747 4.15221,9.31314 9.2584,9.31314c5.10619,0 9.25839,-4.17567 9.25839,-9.31314z" fill="#fac900"/><path d="M178.64306,153.6117c-5.62229,0 -10.19673,-4.59792 -10.19673,-10.2593c0,-5.66138 4.57446,-10.2593 10.19673,-10.2593c5.62229,0 10.19675,4.60573 10.19675,10.2593c0,5.66138 -4.57446,10.2593 -10.19675,10.2593zM187.90144,143.35241c0,-5.13747 -4.1522,-9.31313 -9.25839,-9.31313c-5.10619,0 -9.25839,4.17566 -9.25839,9.31313c0,5.13747 4.1522,9.31313 9.25839,9.31313c5.10619,0 9.25839,-4.17566 9.25839,-9.31313z" fill="#fac900"/><path d="M193.00766,154.01832c5.62229,0 10.19673,4.59792 10.19673,10.2593c0,5.66138 -4.57446,10.2593 -10.19673,10.2593c-5.62229,0 -10.19674,-4.60574 -10.19674,-10.2593c0,-5.66138 4.57447,-10.2593 10.19674,-10.2593zM183.74927,164.27762c0,5.13747 4.15219,9.31313 9.25839,9.31313c5.10619,0 9.25839,-4.17566 9.25839,-9.31313c0,-5.13747 -4.15219,-9.31313 -9.25839,-9.31313c-5.10619,0 -9.25839,4.17566 -9.25839,9.31313z" fill="#fac900"/><path d="M215.48115,203.0315c0,-5.66138 4.57446,-10.2593 10.19674,-10.2593c5.62229,0 10.19674,4.59792 10.19674,10.2593c0,5.66138 -4.57447,10.2593 -10.19674,10.2593c-5.62229,0 -10.19674,-4.59792 -10.19674,-10.2593zM216.4195,203.0315c0,5.13747 4.15219,9.31313 9.25839,9.31313c5.10619,0 9.25839,-4.17566 9.25839,-9.31313c0,-5.13747 -4.15219,-9.31313 -9.25839,-9.31313c-5.10619,0 -9.25839,4.17566 -9.25839,9.31313z" fill="#fac900"/><path d="M192.18659,111.0106c-5.62229,0 -10.19675,-4.60574 -10.19675,-10.2593c0,-0.63339 0.06256,-1.25114 0.17204,-1.85324h0.94617c-0.12511,0.60211 -0.18767,1.21985 -0.18767,1.85324c0,5.13747 4.15219,9.31313 9.25839,9.31313c5.10619,0 9.25839,-4.17566 9.25839,-9.31313c0,-0.63339 -0.07038,-1.25114 -0.18767,-1.85324h0.94617c0.10948,0.60211 0.17202,1.21985 0.17202,1.85324c0,5.66138 -4.57446,10.2593 -10.19673,10.2593z" fill="#fac900"/><path d="M181.90383,124.79653c0,-6.91253 5.591,-12.5348 12.46442,-12.5348h0.46918v25.06959h-0.46918c-6.87343,0 -12.46442,-5.62228 -12.46442,-12.5348zM182.84218,124.79653c0,6.23221 4.91853,11.33059 11.05689,11.58081v-23.16162c-6.13837,0.25022 -11.05689,5.3486 -11.05689,11.58081z" fill="#c75eeb"/><path d="M182.9673,132.67868h-14.61481v-0.93835h12.98834l-10.65028,-18.56371l-2.33806,4.074v-1.88452l2.33806,-4.074z" fill="#4ebfe9"/><path d="M201.89851,130.13731l12.27676,21.38657h-24.5535zM212.54878,150.57771l-10.65028,-18.55588l-10.65028,18.55588z" fill="#4ebfe9"/><path d="M223.90284,175.30325h-24.5535l12.27675,-21.38657zM200.97582,174.35707h21.30056l-10.65028,-18.55588z" fill="#4ebfe9"/><path d="M186.25154,197.96442l12.27675,-21.38657l12.27676,21.38657zM198.52827,178.46236l-10.65028,18.55588h21.30056z" fill="#4ebfe9"/><path d="M209.94487,100.24303l0.77415,-1.33715h1.0791l-0.22677,0.39099h21.30056l-0.22677,-0.39099h1.08691l0.76632,1.33715z" fill="#4ebfe9"/><path d="M179.96457,177.7977h-11.61209v-0.94618h10.68156v-15.79557h-10.68156v-0.94617h11.61209z" fill="#f6543b"/><path d="M169.32993,148.88086l-0.97744,1.70467v-3.40151z" fill="#61e061"/><path d="M210.28111,193.41341l-4.42588,-7.71793l4.42588,-7.71794h8.8596l4.42589,7.71794l-4.42589,7.71793zM206.93432,185.69547l3.88634,6.77176h7.77267l3.88634,-6.77176l-3.88634,-6.77176h-7.77267z" fill="#61e061"/><path d="M168.90766,197.61253l-0.55519,0.96963v-1.93925z" fill="#61e061"/><path d="M314.61005,124.82781v0.98528c-4.67611,1.4779 -8.07763,5.86469 -8.07763,11.04908c0,5.18439 3.40151,9.57117 8.07763,11.04907v0.98528c-5.20002,-1.50918 -9.01598,-6.32605 -9.01598,-12.03435c0,-5.70829 3.81595,-10.52517 9.01598,-12.03434z" fill="#c75eeb"/><path d="M181.38775,210.14733l-0.10948,-0.06256l-0.02345,0.04693l-7.49116,-0.93835l0.05473,-0.46918c0.31278,-2.53355 1.58737,-4.79341 3.5892,-6.36515c2.00181,-1.57174 4.49627,-2.26768 7.01417,-1.94707c2.5179,0.31278 4.76995,1.5952 6.32605,3.61265c1.5561,2.00965 2.24423,4.51973 1.93145,7.05327l-0.05475,0.46918l-11.23675,-1.40752zM174.81929,208.36446l16.97633,2.12693c0.14857,-2.11911 -0.47699,-4.19911 -1.79068,-5.88814c-1.40753,-1.82197 -3.4328,-2.97927 -5.70048,-3.26078c-2.26768,-0.28932 -4.5119,0.33625 -6.31823,1.75159c-1.68121,1.32152 -2.79159,3.17476 -3.16694,5.2704z" fill="#c75eeb"/><path d="M229.55641,165.12214l0.32842,-0.33625l17.727,17.61753l-0.32843,0.33624c-2.43189,2.4788 -5.70048,3.72213 -8.8674,3.72213c-3.16694,0 -6.33386,-1.20422 -8.75795,-3.61265c-4.88724,-4.85596 -4.94198,-12.80849 -0.10948,-17.727zM229.89264,166.13086c-4.13656,4.56663 -3.98799,11.67464 0.42226,16.05361c4.41025,4.37896 11.47132,4.44153 15.95977,0.22677z" fill="#c75eeb"/><path d="M180.62923,224.76995h-12.27675v-0.94617h10.65028l-10.65028,-18.55588v-1.89234z" fill="#4ebfe9"/><path d="M236.47674,190.16828h17.57844v17.68009h-17.57844zM237.41509,206.90221h15.70173v-15.79558h-15.70173z" fill="#f6543b"/><path d="M286.63156,143.96234h17.57842v17.68009h-17.57842zM287.56994,160.69626h15.70173v-15.79557h-15.70173z" fill="#f6543b"/><path d="M292.86378,176.92971h10.06381l5.03582,8.76576l-5.03582,8.76576h-10.06381l-5.03582,-8.76576zM293.40334,177.86807l-4.49626,7.82742l4.49626,7.8274h8.98471l4.48844,-7.8274l-4.48844,-7.82742z" fill="#61e061"/><path d="M314.61005,189.90242v1.0791c-3.28423,-1.70468 -5.53626,-5.14528 -5.53626,-9.10982c0,-3.96453 2.25204,-7.40514 5.53626,-9.10982v1.0791c-2.74467,1.61865 -4.59792,4.60574 -4.59792,8.03072c0,3.42498 1.85324,6.41207 4.59792,8.03072z" fill="#fac900"/><path d="M283.27696,182.6693c-5.62228,0 -10.19673,-4.59792 -10.19673,-10.25931c0,-5.66138 4.57446,-10.2593 10.19673,-10.2593c5.62228,0 10.19674,4.60574 10.19674,10.2593c0,5.66138 -4.57446,10.25931 -10.19674,10.25931zM292.53536,172.41c0,-5.13747 -4.1522,-9.31313 -9.25839,-9.31313c-5.10618,0 -9.25839,4.17566 -9.25839,9.31313c0,5.13747 4.1522,9.31313 9.25839,9.31313c5.10618,0 9.25839,-4.17566 9.25839,-9.31313z" fill="#fac900"/><path d="M284.23877,184.17849h0.46919v25.06959h-0.46919c-6.87343,0 -12.46441,-5.62228 -12.46441,-12.5348c0,-6.91252 5.591,-12.5348 12.46441,-12.5348zM272.71269,196.71328c0,6.23221 4.91853,11.33059 11.05689,11.58081v-23.16162c-6.13837,0.25022 -11.05689,5.3486 -11.05689,11.58082z" fill="#c75eeb"/><path d="M312.06086,150.24147l2.54137,4.43371v1.89233l-2.54137,-4.44153l-10.65028,18.55588h13.19164v0.94617h-14.81812z" fill="#4ebfe9"/><path d="M296.94561,243.43531v-17.5628l0.07038,-0.12511h17.50806v17.68009h-17.57844zM297.88395,226.68576v15.79557h15.70174v-15.79557z" fill="#f6543b"/><path d="M310.95049,258.402l3.65175,6.37297v1.88452l-4.19912,-7.31914h-8.97689l-4.49625,7.8274l4.49625,7.82741h8.97689l4.19912,-7.31913v1.89233l-3.65175,6.37297h-10.07163l-5.02799,-8.77358l5.02799,-8.76575z" fill="#61e061"/><path d="M290.96362,304.87381l5.03581,-8.76575h10.06381l5.03582,8.76575l-5.03582,8.76576h-10.06381zM292.04273,304.87381l4.49627,7.82742h8.98471l4.48844,-7.82742l-4.48844,-7.8274h-8.98471z" fill="#61e061"/><path d="M301.50442,253.89009c0,5.66138 -4.57446,10.25931 -10.19673,10.25931c-5.62228,0 -10.19675,-4.59792 -10.19675,-10.25931c0,-5.66138 4.57446,-10.2593 10.19675,-10.2593c5.62228,0 10.19673,4.59792 10.19673,10.2593zM300.56607,253.89009c0,-5.13747 -4.1522,-9.31313 -9.25839,-9.31313c-5.10618,0 -9.25839,4.17566 -9.25839,9.31313c0,5.13747 4.1522,9.31313 9.25839,9.31313c5.10618,0 9.25839,-4.17566 9.25839,-9.31313z" fill="#fac900"/><path d="M314.60223,311.07475c-1.71249,-1.83761 -2.77596,-4.30078 -2.77596,-7.01418c0,-2.7134 1.05566,-5.17656 2.77596,-7.01417v1.47008c-1.14947,1.5561 -1.8376,3.4719 -1.8376,5.55191c0,2.08 0.68812,4.00362 1.8376,5.5519v1.47008z" fill="#fac900"/><path d="M279.79722,278.19338c0,-6.91253 5.59101,-12.5348 12.46444,-12.5348h0.46918v25.06959h-0.46918c-6.87343,0 -12.46444,-5.62228 -12.46444,-12.5348zM280.73557,278.19338c0,6.23221 4.91853,11.33059 11.05689,11.58081v-23.16162c-6.13837,0.25022 -11.05689,5.34859 -11.05689,11.5808z" fill="#c75eeb"/><path d="M298.15764,275.60509l0.23458,-0.40662l16.21783,9.41479v1.08691l-15.86594,-9.21147c-2.85415,5.47372 -0.92272,12.30021 4.44153,15.42022c2.66648,1.54827 5.77087,1.96272 8.7423,1.15731c0.94617,-0.25022 1.8376,-0.63339 2.6743,-1.10257v1.07129c-0.76632,0.39099 -1.57956,0.71158 -2.43189,0.93834c-1.07128,0.28933 -2.16603,0.43008 -3.24513,0.43008c-2.15821,0 -4.28513,-0.56301 -6.20876,-1.68121c-5.95071,-3.45625 -7.99162,-11.13511 -4.55882,-17.12491z" fill="#c75eeb"/><path d="M273.15841,309.98783l-10.06381,15.50623h-1.1182l9.87613,-15.22474c-1.83761,-1.10257 -3.8707,-1.6343 -5.88033,-1.6343c-3.76122,0 -7.45988,1.85324 -9.665,5.25477c-1.68121,2.59611 -2.25987,5.68484 -1.62648,8.71883c0.21113,1.01655 0.56301,1.98617 1.01654,2.88543h-1.04001c-0.39099,-0.85233 -0.70376,-1.75159 -0.89925,-2.68993c-0.68031,-3.27641 -0.06255,-6.62319 1.75941,-9.43042c3.76122,-5.7865 11.49479,-7.42079 17.25,-3.64394z" fill="#c75eeb"/><path d="M294.3104,325.49406l6.24004,-10.87705l5.77085,10.05599c-0.29715,0.10947 -0.60212,0.21896 -0.90708,0.30497l-4.86379,-8.47644l-5.16092,8.99253h-1.08693z" fill="#4ebfe9"/><path d="M313.92192,253.95266l0.68031,-2.30678v2.14257z" fill="#4ebfe9"/><path d="M252.91351,274.51817h-17.57844v-17.68009h17.57844zM251.97517,257.78425h-15.70173v15.79558h15.70173z" fill="#f6543b"/><path d="M223.00359,237.84431h-17.57843v-17.68008h17.57843zM222.06525,221.11039h-15.70174v15.79557h15.70174z" fill="#f6543b"/><path d="M273.90129,307.29789h17.57842v17.68009h-17.57842zM274.83964,324.0318h15.70173v-15.79557h-15.70173z" fill="#f6543b"/><path d="M214.55844,240.3544h10.06381l5.03581,8.76575l-5.03581,8.76575h-10.06381l-5.03581,-8.76575zM215.09017,241.29275l-4.48844,7.8274l4.48844,7.82741h8.98469l4.49627,-7.82741l-4.49627,-7.8274z" fill="#61e061"/><path d="M256.61218,291.22863l5.03581,8.76576l-5.03581,8.76575h-10.06381l-5.03581,-8.76575l5.03581,-8.76576zM260.56107,299.99439l-4.48844,-7.8274h-8.9847l-4.48844,7.8274l4.48844,7.8274h8.9847z" fill="#61e061"/><path d="M204.63538,286.81838l5.03582,-8.76576h10.06381l5.03581,8.76576l-5.03581,8.76576h-10.06381zM205.72228,286.81838l4.48844,7.8274h8.98471l4.48844,-7.8274l-4.48844,-7.82741h-8.98471z" fill="#61e061"/><path d="M240.973,235.03707c5.62229,0 10.19673,4.59792 10.19673,10.25931c0,5.66138 -4.57446,10.2593 -10.19673,10.2593c-5.62229,0 -10.19675,-4.60573 -10.19675,-10.2593c0,-5.66138 4.57446,-10.25931 10.19675,-10.25931zM240.973,235.98325c-5.10619,0 -9.25839,4.17566 -9.25839,9.31313c0,5.13747 4.1522,9.31313 9.25839,9.31313c5.10619,0 9.25839,-4.17566 9.25839,-9.31313c0,-5.13747 -4.15219,-9.31313 -9.25839,-9.31313z" fill="#fac900"/><path d="M272.96293,306.85999c-5.62228,0 -10.19674,-4.59792 -10.19674,-10.2593c0,-5.66138 4.57446,-10.2593 10.19674,-10.2593c5.62228,0 10.19673,4.60573 10.19673,10.2593c0,5.66138 -4.57446,10.2593 -10.19673,10.2593zM282.22132,296.60069c0,-5.13747 -4.15219,-9.31313 -9.25839,-9.31313c-5.10618,0 -9.2584,4.17566 -9.2584,9.31313c0,5.13747 4.1522,9.31314 9.2584,9.31314c5.10618,0 9.25839,-4.17567 9.25839,-9.31314z" fill="#fac900"/><path d="M268.3963,325.49406c0.68031,-0.14074 1.36843,-0.21895 2.08783,-0.21895c0.7194,0 1.41533,0.07819 2.08783,0.21895h-4.16784z" fill="#fac900"/><path d="M231.87882,325.49406h-1.0009c-1.28241,-3.59701 -4.69957,-6.17748 -8.7032,-6.17748c-4.00364,0 -7.42079,2.58047 -8.7032,6.17748h-1.00091c1.32152,-4.12874 5.16875,-7.12365 9.7041,-7.12365c4.53537,0 8.3826,2.99491 9.7041,7.12365z" fill="#fac900"/><path d="M225.49803,286.02861c0,-5.66138 4.57446,-10.25931 10.19673,-10.25931c5.62229,0 10.19674,4.59792 10.19674,10.25931c0,5.66138 -4.57446,10.2593 -10.19674,10.2593c-5.62229,0 -10.19673,-4.59792 -10.19673,-10.2593zM226.43639,286.02861c0,5.13747 4.15219,9.31313 9.25839,9.31313c5.10619,0 9.25839,-4.17566 9.25839,-9.31313c0,-5.13747 -4.1522,-9.31314 -9.25839,-9.31314c-5.10619,0 -9.25839,4.17567 -9.25839,9.31314z" fill="#fac900"/><path d="M195.43172,260.14576c0,-6.91252 5.591,-12.5348 12.46442,-12.5348h0.46918v25.0696h-0.46918c-6.87343,0 -12.46442,-5.62228 -12.46442,-12.5348zM196.37008,260.14576c0,6.23221 4.91852,11.33059 11.05688,11.58081v-23.16161c-6.13837,0.25022 -11.05688,5.34859 -11.05688,11.5808z" fill="#c75eeb"/><path d="M237.8999,297.53904h0.46919v25.0696h-0.46919c-6.87343,0 -12.46441,-5.62228 -12.46441,-12.5348c0,-6.91253 5.591,-12.5348 12.46441,-12.5348zM237.43072,298.49303c-6.13837,0.25022 -11.05689,5.34859 -11.05689,11.5808c0,6.23221 4.91853,11.33059 11.05689,11.58081z" fill="#c75eeb"/><path d="M225.84211,275.9257c-1.07128,0.28933 -2.16603,0.43008 -3.24513,0.43008c-2.15822,0 -4.28513,-0.56301 -6.20875,-1.6812c-5.9507,-3.45625 -7.99162,-11.13511 -4.55882,-17.12491l0.23458,-0.40662l21.58206,12.5348l-0.23459,0.40661c-1.66557,2.90107 -4.35551,4.97326 -7.56936,5.84123zM225.5997,275.0108c2.82287,-0.7585 5.20784,-2.52573 6.75612,-4.99671l-19.93996,-11.58081c-2.85414,5.47372 -0.92272,12.30021 4.44153,15.42023c2.66648,1.54827 5.77086,1.9549 8.7423,1.1573z" fill="#c75eeb"/><path d="M214.22218,296.56941l12.27675,21.38657h-24.5535zM224.87246,317.00981l-10.65028,-18.55588l-10.65028,18.55588z" fill="#4ebfe9"/><path d="M245.42235,315.41462l5.7865,10.07944h-1.08692l-4.69957,-8.19493l-4.69958,8.19493h-1.08692z" fill="#4ebfe9"/><path d="M265.75327,264.12594l12.27676,21.38657h-24.55351zM276.40355,284.56634l-10.65028,-18.55588l-10.65028,18.55588z" fill="#4ebfe9"/><path d="M248.081,234.20038h-24.5535l12.27675,-21.38657zM225.15397,233.25421h21.30055l-10.65028,-18.55589z" fill="#4ebfe9"/><path d="M283.75397,213.75216h10.06381l5.03582,8.76575l-1.84542,3.22167h-0.07038v0.12511l-3.1122,5.42679h-10.06381l-5.03581,-8.76576l1.66557,-2.90107c0.15639,-0.07819 0.31277,-0.14075 0.46134,-0.22677l0.40662,-0.23458l-0.29715,-0.52392l2.79941,-4.88724zM297.78229,222.51791l-4.49627,-7.8274h-8.9847l-4.48844,7.8274l4.48844,7.8274h8.9847z" fill="#61e061"/><path d="M296.94561,225.73959h0.06255l-0.06255,0.12511z" fill="#61e061"/><path d="M259.67743,251.55987l5.03582,-8.76576h10.06381l5.03581,8.76576l-5.03581,8.76576h-10.06381zM260.76435,251.55987l4.48844,7.82741h8.98471l4.48844,-7.82741l-4.48844,-7.8274h-8.98471z" fill="#61e061"/><path d="M307.75228,202.56233c2.64303,0 5.04363,1.01655 6.85778,2.68212v1.33714c-1.69684,-1.88452 -4.13657,-3.07309 -6.85778,-3.07309c-5.10618,0 -9.25839,4.17566 -9.25839,9.31313c0,5.13747 4.1522,9.31313 9.25839,9.31313c2.72121,0 5.16092,-1.18857 6.85778,-3.07309v1.33714c-1.81414,1.65775 -4.21476,2.68212 -6.85778,2.68212c-5.62228,0 -10.19673,-4.60573 -10.19673,-10.2593c0,-5.66138 4.57446,-10.2593 10.19673,-10.2593z" fill="#fac900"/><path d="M260.97549,212.35245h0.46917v25.0696h-0.46917c-6.87343,0 -12.46442,-5.62229 -12.46442,-12.5348c0,-6.91252 5.59101,-12.5348 12.46442,-12.5348zM260.5063,213.30644c-6.13837,0.25022 -11.05689,5.34859 -11.05689,11.5808c0,6.23221 4.91852,11.33059 11.05689,11.58082z" fill="#c75eeb"/><path d="M204.11928,308.68195h-17.57842v-17.68009h17.57842zM203.18094,291.94803h-15.70173v15.79557h15.70173z" fill="#f6543b"/><path d="M213.84686,217.66195h-17.57844v-17.68009h17.57844zM212.90849,200.92803h-15.70174v15.79558h15.70174z" fill="#f6543b"/><path d="M175.83584,292.04969h-7.48335v-0.94617h6.93597l4.49627,-7.81959l-4.49627,-7.8274h-6.93597v-0.94617h7.48335l5.02799,8.77357z" fill="#61e061"/><path d="M207.82577,325.38459l0.06255,0.10947h-10.18893l0.06256,-0.10947z" fill="#61e061"/><path d="M168.37595,313.16256c-0.00781,-0.15639 -0.02346,-0.31278 -0.02346,-0.47699v-0.46918h2.5961l5.03582,8.76576l-1.50918,2.62738c-0.26587,-0.16422 -0.52391,-0.33625 -0.78195,-0.5161l1.21203,-2.11129l-4.49625,-7.82741h-2.0331z" fill="#61e061"/><path d="M191.95201,269.21648h0.45353c5.52062,0.12511 9.96997,4.58228 9.96997,10.24367c0,5.66138 -4.57446,10.2593 -10.19673,10.2593c-5.62229,0 -10.19674,-4.60573 -10.19674,-10.2593c0,-5.57536 4.44935,-10.11854 9.96997,-10.24367zM192.17877,270.14702c-5.10619,0 -9.25839,4.17566 -9.25839,9.31313c0,5.13747 4.15219,9.31313 9.25839,9.31313c5.10619,0 9.25839,-4.17566 9.25839,-9.31313c0,-5.13747 -4.15219,-9.31313 -9.25839,-9.31313z" fill="#fac900"/><path d="M183.57723,237.35949c0,5.66138 -4.57446,10.25931 -10.19673,10.25931c-1.82978,0 -3.54227,-0.49264 -5.028,-1.34497v-1.10256c1.44663,0.95398 3.17476,1.50918 5.028,1.50918c5.10619,0 9.25839,-4.17567 9.25839,-9.31314c0,-5.13747 -4.15219,-9.31313 -9.25839,-9.31313c-1.85324,0 -3.58137,0.56301 -5.028,1.50918v-1.10256c1.48573,-0.85234 3.19821,-1.34497 5.028,-1.34497c5.62229,0 10.19673,4.60574 10.19673,10.2593z" fill="#fac900"/><path d="M197.10511,320.19238c0,1.93926 -0.54737,3.75339 -1.48571,5.30168h-1.11038c1.04001,-1.50918 1.65775,-3.33114 1.65775,-5.30168c0,-5.13747 -4.1522,-9.31313 -9.25839,-9.31313c-5.10619,0 -9.25839,4.17566 -9.25839,9.31313c0,1.90017 0.57082,3.66739 1.54827,5.14529c-0.42226,-0.06255 -0.84451,-0.14857 -1.25113,-0.25022c-0.78978,-1.45444 -1.2355,-3.12783 -1.2355,-4.89506c0,-5.66138 4.57446,-10.2593 10.19674,-10.2593c5.62229,0 10.19674,4.60574 10.19674,10.2593z" fill="#fac900"/><path d="M191.81906,229.28186c-2.15822,0 -4.28512,-0.56302 -6.20875,-1.68122c-2.88543,-1.67339 -4.9498,-4.37115 -5.80996,-7.60845c-0.86015,-3.22949 -0.42225,-6.60754 1.24331,-9.50861l0.21113,-0.3597l0.13293,0.01564l21.47259,12.47224l-0.23459,0.40661c-1.65775,2.90107 -4.34769,4.97326 -7.56154,5.84123c-1.07128,0.28932 -2.16602,0.43008 -3.24513,0.43008zM180.69962,219.74978c0.7976,2.98709 2.70557,5.48936 5.37206,7.03763c2.66648,1.54827 5.76304,1.96272 8.7423,1.1573c2.82287,-0.7585 5.20785,-2.52573 6.75612,-4.99672l-19.93996,-11.58081c-1.35279,2.58829 -1.68121,5.54409 -0.92271,8.3826z" fill="#c75eeb"/><path d="M181.38775,210.13951l-0.13294,-0.02346l0.02345,-0.0391z" fill="#c75eeb"/><path d="M191.95201,269.21648h-19.25965l12.27675,-21.38658l12.27675,21.38658h-4.84031c-0.07819,0 -0.14858,-0.00781 -0.22677,-0.00781c-0.07819,0 -0.14857,0.00781 -0.22677,0.00781zM174.31884,268.27814h21.30056l-10.65028,-18.55589z" fill="#4ebfe9"/><path d="M192.17877,269.20867c0.07819,0 0.14857,0.00781 0.22677,0.00781h-0.45353c0.07819,0 0.14857,-0.00781 0.22677,-0.00781z" fill="#4ebfe9"/><path d="M205.5268,240.60462c0,5.66138 -4.57446,10.2593 -10.19675,10.2593c-5.62229,0 -10.19673,-4.59792 -10.19673,-10.2593c0,-5.66138 4.57446,-10.25931 10.19673,-10.25931c5.62229,0 10.19675,4.59792 10.19675,10.25931zM204.58846,240.60462c0,-5.13747 -4.15221,-9.31313 -9.2584,-9.31313c-5.10619,0 -9.25839,4.17566 -9.25839,9.31313c0,5.13747 4.1522,9.31313 9.25839,9.31313c5.10619,0 9.2584,-4.17566 9.2584,-9.31313z" fill="#fac900"/><path d="M174.13115,308.83835c-1.50918,0.60993 -3.08092,0.89925 -4.62137,0.89925c-0.38316,0 -0.76632,-0.03127 -1.14166,-0.06255v-0.94617c1.78286,0.17985 3.63611,-0.05473 5.41116,-0.77414c5.74739,-2.32241 8.625,-8.80486 6.56846,-14.63045l-11.98743,4.84031v-1.01655l12.51134,-5.05146l0.17202,0.43791c2.55701,6.41989 -0.54737,13.73119 -6.92815,16.30383z" fill="#c75eeb"/><path d="M269.20172,239.4004c-2.88543,-1.67339 -4.94979,-4.37115 -5.80996,-7.60845c-0.86015,-3.22949 -0.42226,-6.60755 1.24331,-9.50862l0.23459,-0.40662l21.58205,12.5348l-0.23458,0.40662c-1.65775,2.90107 -4.34769,4.97326 -7.56154,5.84123c-1.07128,0.28932 -2.16603,0.43008 -3.24513,0.43008c-2.15821,0 -4.28512,-0.56301 -6.20875,-1.68121zM265.22154,223.16695c-1.35278,2.58829 -1.6812,5.54407 -0.92271,8.3826c0.7976,2.98709 2.70557,5.48935 5.37206,7.03762c2.66648,1.54827 5.76304,1.9549 8.7423,1.1573c2.82286,-0.7585 5.20785,-2.52572 6.75612,-4.99671l-19.93996,-11.58081z" fill="#c75eeb"/><path d="M268.77944,197.4405l12.15945,21.19108l-0.56301,0.98528c-1.7985,0.94617 -3.7534,1.45444 -5.74739,1.45444c-1.0791,0 -2.17385,-0.14076 -3.24513,-0.43008c-3.21385,-0.86798 -5.89597,-2.94017 -7.56154,-5.84123c-1.66557,-2.89325 -2.10347,-6.27132 -1.24331,-9.50862c0.86798,-3.22949 2.92454,-5.93506 5.80996,-7.60845l0.40661,-0.23458zM271.62576,219.73414c2.82286,0.7585 5.76303,0.43008 8.33568,-0.93053l-11.51043,-20.06507c-2.45535,1.56392 -4.20693,3.95671 -4.96544,6.79523c-0.7976,2.99491 -0.39096,6.11492 1.14947,8.79704c1.54046,2.68212 4.02709,4.60574 6.99853,5.40333z" fill="#c75eeb"/><path d="M281.26733,219.16331l-0.40662,0.23458c-0.14857,0.08602 -0.31277,0.14857 -0.46135,0.22677l0.56301,-0.98528l0.29715,0.52392z" fill="#c75eeb"/></g><g><path d="M190.36463,212.54012c0,-27.83794 22.95221,-50.40507 51.26521,-50.40507c28.313,0 51.26522,22.56713 51.26522,50.40507c0,27.83794 -22.95222,50.40506 -51.26522,50.40506c-28.313,0 -51.26521,-22.56712 -51.26521,-50.40506z" fill="#ffffff"/><g><path d="M257.19863,178.16521c-0.00781,1.90016 -0.57084,7.59283 -6.67793,9.64937c-0.82106,-0.55518 -1.82196,-1.02437 -2.95579,-1.39188c-0.21113,-0.07038 -0.44571,-0.14074 -0.68031,-0.19549c-1.43098,-0.36751 -3.16694,-0.55519 -5.22349,-0.55519c-4.69175,0 -7.85086,0.91489 -9.56336,2.85415c-1.45444,1.68121 -2.30677,3.69085 -2.48663,6.04455c0,0.50827 -0.42226,0.84451 -0.93054,0.84451h-10.25148c-0.50827,0 -0.93834,-0.42226 -0.93834,-0.92272v-2.4397c0,-2.34588 0.43008,-4.53536 1.36061,-6.545c0.86015,-2.01745 2.3146,-3.86288 4.35551,-5.37206c1.97054,-1.51701 4.44934,-2.77596 7.52245,-3.61265c2.98709,-0.83669 6.66229,-1.34497 10.92396,-1.34497c4.8716,0 8.97688,0.54737 12.33148,1.65775c1.1573,0.37535 2.22076,0.82888 3.20604,1.33714z" fill="#f6543b"/><path d="M265.69853,214.8469l0.06255,18.25874c0,1.68121 -0.33624,3.53445 -0.93835,5.45807c-0.42226,1.42317 -1.14166,2.76032 -2.16603,3.98799c-0.42226,0.50827 -0.89925,1.0009 -1.42316,1.47008c-1.32933,1.25114 -3.03402,2.30677 -5.09055,3.25295c-7.32695,-2.32241 -6.44334,-9.10981 -6.44334,-9.10981c0.64121,-0.33624 1.18859,-0.73504 1.62648,-1.19639c1.0009,-1.0791 1.70468,-2.38497 2.11911,-3.95671c0.29715,-1.1182 0.44571,-2.36934 0.44571,-3.76904l0.16422,-14.40368c0,0 0.63338,0.71158 1.92362,1.17294c2.31461,0.82888 6.15403,1.33714 9.71975,-1.17294z" fill="#4ebfe9"/><path d="M256.13518,247.28255c-0.71158,0.32842 -1.46226,0.64121 -2.25204,0.94618c-3.08092,1.10256 -7.17056,1.68121 -12.12818,1.68121c-4.95763,0 -9.05509,-0.58647 -12.136,-1.68121c-3.07309,-1.08692 -5.54409,-2.5179 -7.34259,-4.1913c-1.79068,-1.67339 -2.98709,-3.52663 -3.58138,-5.45808c-0.60211,-2.01745 -0.94617,-3.86287 -0.94617,-5.45808v-6.54501c0,-1.05564 0.08602,-2.08 0.25805,-3.08092c0.17985,-1.10256 0.46136,-2.17384 0.85234,-3.19821c8.45299,-1.02437 11.60426,4.86378 11.60426,4.86378c-0.54737,1.0791 -0.82888,2.36934 -0.83669,3.91762v0.10165c0,3.52663 0.86015,6.13056 2.56483,7.88996c1.70468,1.68121 4.8716,2.59611 9.47733,2.59611c3.48753,0 6.17748,-0.50827 8.03072,-1.48573c0,0 -0.88362,6.78741 6.44334,9.10981z" fill="#c75eeb"/><path d="M254.00826,211.98493c-0.17202,0.92272 -0.89926,1.64212 -1.66558,2.14258c-0.76632,0.50827 -1.45444,0.7585 -2.13474,1.00873c-1.45444,0.50827 -2.98709,1.00872 -4.61356,1.5952c-1.62648,0.58647 -3.1591,1.18075 -4.61355,1.59519c-1.70468,0.58647 -3.33114,1.09475 -4.77777,1.68122c-1.11038,0.50827 -2.22076,1.08692 -3.24513,1.93144c-0.85234,0.75068 -1.62648,1.6812 -2.30677,2.85414c-0.06255,0.10948 -0.13293,0.23458 -0.18768,0.35187c0,0 -3.15129,-5.88815 -11.60426,-4.86379c0.42226,-1.14166 0.96963,-2.2364 1.62648,-3.29205c1.8767,-2.86198 4.44934,-4.95762 7.85868,-6.13055c1.71249,-0.58647 3.5892,-1.18076 5.80996,-1.93145c2.13474,-0.7585 4.2695,-1.42316 6.32604,-2.18166c2.04091,-0.67247 3.7534,-1.34498 5.29386,-1.84543c1.54046,-0.58647 2.4788,-0.8367 2.82287,-1.00873c0.33624,-0.17202 0.85234,-0.42225 1.44662,-0.75849c0.60211,-0.32842 1.1964,-0.8367 1.79069,-1.42317c0.60211,-0.67247 1.02437,-1.43098 1.45444,-2.18948c0.14075,-0.28151 0.63339,-1.36061 0.72722,-1.67339v14.13782z" fill="#61e061"/><path d="M265.69853,191.91987v23.09124c-3.57355,2.5179 -7.45988,1.79069 -9.78231,0.96182c-1.28241,-0.46919 -1.86106,-0.96962 -1.86106,-0.96962l-0.04693,-3.02618c0,0 -0.18767,-14.71646 -0.18767,-15.44368v-2.60393c0,-0.92272 -0.17202,-1.84542 -0.60211,-2.85414c-0.33624,-1.00873 -1.02437,-1.85324 -1.96272,-2.68993c-0.24241,-0.21895 -0.50827,-0.42226 -0.7976,-0.61775c6.09928,-2.05655 6.66228,-7.74921 6.67793,-9.64936c1.00873,0.52391 1.92363,1.12602 2.74467,1.79068c3.84724,3.19039 5.80995,7.21746 5.80995,12.01089z" fill="#fac900"/></g></g></g></g></svg>