<svg version="1.1" xmlns="http://www.w3.org/2000/svg" xmlns:xlink="http://www.w3.org/1999/xlink" width="155.84864" height="235.99022" viewBox="0,0,155.84864,235.99022"><g transform="translate(-163.72435,-93.68355)"><g data-paper-data="{&quot;isPaintingLayer&quot;:true}" fill-rule="nonzero" stroke="#000000" stroke-width="0" stroke-linecap="butt" stroke-linejoin="miter" stroke-miterlimit="10" stroke-dasharray="" stroke-dashoffset="0" style="mix-blend-mode: normal"><path d="M177.30157,329.67377c-7.50032,0 -13.57722,-5.97523 -13.57722,-13.35041v-209.28939c0,-7.37518 6.0769,-13.35042 13.57722,-13.35042h128.6942c7.50032,0 13.57722,5.97524 13.57722,13.35042v209.28158c0,7.37518 -6.07691,13.35041 -13.57722,13.35041h-128.6942z" fill="#ffffff"/><path d="M295.24975,216.26944h20.53007v91.3334c-1.19662,8.36845 -6.42103,14.67215 -12.69344,14.67215h-122.79719c-7.14837,0 -12.95153,-8.19639 -12.95153,-18.31673v-87.68881h27.26393c-13.74928,-12.2242 -22.368,-29.69626 -22.368,-49.10011c0,-36.96194 31.22135,-66.92411 69.72403,-66.92411c38.50268,0 69.72402,29.96217 69.72402,66.92411c0,19.40385 -8.61872,36.87592 -22.368,49.10011h5.94395z" fill="#ffffff"/><g><path d="M302.52326,98.21971h0.32848c5.83445,0 10.75385,3.82446 12.37279,9.08016c-1.81447,-5.27916 -6.80425,-9.08016 -12.70127,-9.08016z" fill="#4ebfe9"/><path d="M180.77409,98.21189c-7.4221,0 -13.43644,6.01434 -13.43644,13.43644v-0.61003c0,-7.07798 5.79534,-12.81858 12.93589,-12.81858h0.50055z" fill="#4ebfe9"/><path d="M241.65258,101.833c-15.39169,0.06257 -29.59458,4.98197 -41.09924,13.26439l-16.85421,-16.86985h57.95345v3.59766z" fill="#61e061"/><path d="M200.54553,115.08957c-9.7293,6.99978 -17.51117,16.41624 -22.43839,27.33432l-10.77731,-2.33848v-28.42925c0,-7.42211 6.01433,-13.43644 13.43643,-13.43644h2.93287l16.85421,16.86985z" fill="#4ebfe9"/><path d="M175.36196,189.82684l-8.02433,4.06692v-53.80833l10.7773,2.33847c-3.76971,8.36062 -5.88137,17.58938 -5.88137,27.30303c0,6.99978 1.11058,13.74928 3.12839,20.09992z" fill="#f6543b"/><path d="M194.59376,219.55438h-27.25611v-25.66063l8.02433,-4.06691c3.66804,11.5203 10.37844,21.7345 19.2396,29.72754z" fill="#fac900"/><path d="M241.95761,101.82518c-0.10949,0 -0.21116,0 -0.31284,0v-3.59765h57.94563l-16.59611,16.61176c-11.51248,-8.18074 -25.69191,-13.02193 -41.03668,-13.02193z" fill="#c75eeb"/><path d="M315.95971,111.65616v28.42926l-0.17206,0.03911v-29.0784c0,-1.30611 -0.19553,-2.56529 -0.56311,-3.74625c0.46926,1.36867 0.73517,2.8312 0.73517,4.35629z" fill="#61e061"/><path d="M305.7455,142.29875c-4.98978,-10.9963 -12.88897,-20.45968 -22.75123,-27.46728l16.59611,-16.61176h2.93286c5.89702,0 10.89462,3.801 12.70126,9.08016c0.36758,1.18879 0.56311,2.44014 0.56311,3.74625v29.0784l-10.04213,2.18205z" fill="#fac900"/><path d="M315.78764,140.12452l0.17206,-0.03911v53.80833l-0.17206,-0.08603z" fill="#4ebfe9"/><path d="M311.68163,169.72692c0,-9.76058 -2.1273,-19.02845 -5.93613,-27.42035l10.04214,-2.18205v53.6832l-7.31261,-3.70714c2.08038,-6.43667 3.21442,-13.2722 3.21442,-20.37365z" fill="#4ebfe9"/><path d="M315.78764,193.80772l0.17206,0.08603v25.66063h-0.17206z" fill="#c75eeb"/><path d="M315.78764,193.80772v25.74666h-26.4662c8.79078,-7.93047 15.4699,-18.043 19.15358,-29.4538z" fill="#f6543b"/></g></g></g></svg>